<svg xmlns="http://www.w3.org/2000/svg" xmlns:xlink="http://www.w3.org/1999/xlink" width="500" zoomAndPan="magnify" viewBox="0 0 375 374.999991" height="500" preserveAspectRatio="xMidYMid meet" version="1.0"><defs><g/><clipPath id="ba46da367b"><path d="M 141.871094 149.453125 L 232.621094 149.453125 L 232.621094 228.953125 L 141.871094 228.953125 Z M 141.871094 149.453125 " clip-rule="nonzero"/></clipPath></defs><g fill="#403029" fill-opacity="1"><g transform="translate(92.07573, 123.217006)"><g><path d="M -5.328125 -13.109375 C -5.265625 -13.191406 -5.175781 -13.253906 -5.0625 -13.296875 C -4.957031 -13.335938 -4.851562 -13.347656 -4.75 -13.328125 L 1.765625 -11.8125 C 1.859375 -11.769531 1.972656 -11.71875 2.109375 -11.65625 C 2.242188 -11.601562 2.359375 -11.550781 2.453125 -11.5 L 5.90625 -9.0625 C 6 -9 6.050781 -8.914062 6.0625 -8.8125 C 6.070312 -8.707031 6.046875 -8.613281 5.984375 -8.53125 L 5.0625 -7.203125 C 5 -7.117188 4.914062 -7.0625 4.8125 -7.03125 C 4.707031 -7.007812 4.609375 -7.03125 4.515625 -7.09375 L 2.890625 -8.234375 L 0.15625 -4.34375 L 1.78125 -3.203125 C 1.875 -3.140625 1.925781 -3.054688 1.9375 -2.953125 C 1.957031 -2.859375 1.941406 -2.769531 1.890625 -2.6875 L 0.96875 -1.375 C 0.90625 -1.28125 0.820312 -1.222656 0.71875 -1.203125 C 0.613281 -1.179688 0.515625 -1.203125 0.421875 -1.265625 L -3.03125 -3.703125 C -3.125 -3.753906 -3.21875 -3.832031 -3.3125 -3.9375 C -3.40625 -4.050781 -3.488281 -4.148438 -3.5625 -4.234375 L -7.203125 -9.84375 C -7.253906 -9.925781 -7.28125 -10.023438 -7.28125 -10.140625 C -7.28125 -10.253906 -7.25 -10.359375 -7.1875 -10.453125 Z M -1.734375 -5.796875 L 0.890625 -9.546875 L -4.09375 -10.71875 L -4.53125 -10.09375 Z M -1.734375 -5.796875 "/></g></g></g><g fill="#403029" fill-opacity="1"><g transform="translate(101.836298, 109.901207)"><g><path d="M 1.15625 -1.203125 C 1.082031 -1.128906 0.992188 -1.085938 0.890625 -1.078125 C 0.785156 -1.078125 0.695312 -1.113281 0.625 -1.1875 L -7.421875 -8.890625 C -7.503906 -8.953125 -7.546875 -9.035156 -7.546875 -9.140625 C -7.546875 -9.253906 -7.507812 -9.347656 -7.4375 -9.421875 L -3.25 -13.8125 C -2.957031 -14.113281 -2.617188 -14.34375 -2.234375 -14.5 C -1.859375 -14.664062 -1.476562 -14.75 -1.09375 -14.75 C -0.707031 -14.757812 -0.328125 -14.695312 0.046875 -14.5625 C 0.429688 -14.425781 0.78125 -14.210938 1.09375 -13.921875 L 5.25 -9.9375 C 5.5625 -9.632812 5.789062 -9.296875 5.9375 -8.921875 C 6.09375 -8.546875 6.175781 -8.160156 6.1875 -7.765625 C 6.207031 -7.378906 6.144531 -6.992188 6 -6.609375 C 5.851562 -6.234375 5.632812 -5.894531 5.34375 -5.59375 Z M 0.8125 -4.28125 L 3.625 -7.234375 C 3.757812 -7.367188 3.820312 -7.53125 3.8125 -7.71875 C 3.800781 -7.90625 3.726562 -8.066406 3.59375 -8.203125 L -0.5625 -12.1875 C -0.707031 -12.320312 -0.867188 -12.382812 -1.046875 -12.375 C -1.234375 -12.375 -1.394531 -12.304688 -1.53125 -12.171875 L -4.34375 -9.21875 Z M 0.8125 -4.28125 "/></g></g></g><g fill="#403029" fill-opacity="1"><g transform="translate(113.49015, 98.206441)"><g><path d="M 2.34375 -14.296875 C 2.40625 -14.210938 2.425781 -14.117188 2.40625 -14.015625 C 2.394531 -13.910156 2.347656 -13.820312 2.265625 -13.75 L -0.078125 -11.9375 L 4.28125 -6.28125 L 6.625 -8.09375 C 6.707031 -8.164062 6.800781 -8.191406 6.90625 -8.171875 C 7.007812 -8.160156 7.09375 -8.113281 7.15625 -8.03125 L 8.140625 -6.75 C 8.203125 -6.664062 8.226562 -6.570312 8.21875 -6.46875 C 8.207031 -6.375 8.160156 -6.289062 8.078125 -6.21875 L 1.515625 -1.15625 C 1.429688 -1.09375 1.335938 -1.066406 1.234375 -1.078125 C 1.128906 -1.097656 1.046875 -1.148438 0.984375 -1.234375 L 0 -2.515625 C -0.0625 -2.597656 -0.0859375 -2.6875 -0.078125 -2.78125 C -0.0664062 -2.882812 -0.0195312 -2.96875 0.0625 -3.03125 L 2.390625 -4.84375 L -1.96875 -10.5 L -4.296875 -8.6875 C -4.378906 -8.625 -4.46875 -8.601562 -4.5625 -8.625 C -4.664062 -8.644531 -4.75 -8.695312 -4.8125 -8.78125 L -5.8125 -10.0625 C -5.875 -10.144531 -5.894531 -10.234375 -5.875 -10.328125 C -5.863281 -10.429688 -5.816406 -10.515625 -5.734375 -10.578125 L 0.828125 -15.640625 C 0.910156 -15.710938 1 -15.738281 1.09375 -15.71875 C 1.195312 -15.707031 1.28125 -15.660156 1.34375 -15.578125 Z M 2.34375 -14.296875 "/></g></g></g><g fill="#403029" fill-opacity="1"><g transform="translate(126.771684, 88.399316)"><g><path d="M 9 -4.96875 L 1.90625 -1.046875 C 1.8125 -0.992188 1.710938 -0.976562 1.609375 -1 C 1.503906 -1.03125 1.425781 -1.09375 1.375 -1.1875 L -4.015625 -10.9375 C -4.054688 -11.03125 -4.0625 -11.125 -4.03125 -11.21875 C -4 -11.320312 -3.9375 -11.398438 -3.84375 -11.453125 L -2.4375 -12.234375 C -2.34375 -12.285156 -2.242188 -12.296875 -2.140625 -12.265625 C -2.046875 -12.242188 -1.976562 -12.1875 -1.9375 -12.09375 L 2.484375 -4.09375 L 7.84375 -7.046875 C 7.9375 -7.097656 8.03125 -7.109375 8.125 -7.078125 C 8.226562 -7.054688 8.304688 -7 8.359375 -6.90625 L 9.140625 -5.484375 C 9.191406 -5.390625 9.203125 -5.289062 9.171875 -5.1875 C 9.148438 -5.09375 9.09375 -5.019531 9 -4.96875 Z M 9 -4.96875 "/></g></g></g><g fill="#403029" fill-opacity="1"><g transform="translate(141.378739, 80.703544)"><g/></g></g><g fill="#403029" fill-opacity="1"><g transform="translate(156.960793, 75.298025)"><g><path d="M 10.390625 -2.484375 C 10.460938 -2.398438 10.484375 -2.320312 10.453125 -2.25 C 10.421875 -2.175781 10.351562 -2.128906 10.25 -2.109375 L 8.328125 -1.71875 C 8.222656 -1.695312 8.113281 -1.707031 8 -1.75 C 7.882812 -1.789062 7.789062 -1.847656 7.71875 -1.921875 L 4.359375 -5.75 L 2.71875 -5.40625 L 3.59375 -1.125 C 3.613281 -1.019531 3.59375 -0.921875 3.53125 -0.828125 C 3.46875 -0.742188 3.390625 -0.691406 3.296875 -0.671875 L 1.703125 -0.34375 C 1.597656 -0.320312 1.503906 -0.34375 1.421875 -0.40625 C 1.335938 -0.46875 1.285156 -0.550781 1.265625 -0.65625 L -0.984375 -11.5625 C -1.003906 -11.664062 -0.984375 -11.753906 -0.921875 -11.828125 C -0.867188 -11.910156 -0.789062 -11.960938 -0.6875 -11.984375 L 0.90625 -12.3125 C 1 -12.332031 1.085938 -12.316406 1.171875 -12.265625 C 1.265625 -12.210938 1.320312 -12.132812 1.34375 -12.03125 L 2.234375 -7.734375 L 3.875 -8.078125 L 5.453125 -12.921875 C 5.484375 -13.035156 5.546875 -13.128906 5.640625 -13.203125 C 5.734375 -13.285156 5.832031 -13.335938 5.9375 -13.359375 L 7.859375 -13.75 C 7.960938 -13.769531 8.039062 -13.753906 8.09375 -13.703125 C 8.144531 -13.660156 8.15625 -13.585938 8.125 -13.484375 L 6.140625 -7.34375 Z M 10.390625 -2.484375 "/></g></g></g><g fill="#403029" fill-opacity="1"><g transform="translate(173.196241, 72.297767)"><g><path d="M 7.796875 -11.9375 C 7.785156 -12.039062 7.816406 -12.128906 7.890625 -12.203125 C 7.960938 -12.285156 8.050781 -12.328125 8.15625 -12.328125 L 9.78125 -12.421875 C 9.882812 -12.421875 9.972656 -12.382812 10.046875 -12.3125 C 10.117188 -12.25 10.160156 -12.164062 10.171875 -12.0625 L 10.75 -0.9375 C 10.75 -0.832031 10.71875 -0.738281 10.65625 -0.65625 C 10.59375 -0.582031 10.507812 -0.546875 10.40625 -0.546875 L 8.78125 -0.453125 C 8.675781 -0.453125 8.582031 -0.484375 8.5 -0.546875 C 8.414062 -0.617188 8.375 -0.707031 8.375 -0.8125 L 8.140625 -5.1875 L 3.40625 -4.9375 L 3.640625 -0.5625 C 3.640625 -0.457031 3.601562 -0.363281 3.53125 -0.28125 C 3.46875 -0.207031 3.382812 -0.171875 3.28125 -0.171875 L 1.640625 -0.078125 C 1.535156 -0.078125 1.445312 -0.109375 1.375 -0.171875 C 1.300781 -0.242188 1.265625 -0.332031 1.265625 -0.4375 L 0.6875 -11.5625 C 0.675781 -11.664062 0.703125 -11.753906 0.765625 -11.828125 C 0.828125 -11.910156 0.910156 -11.953125 1.015625 -11.953125 L 2.65625 -12.046875 C 2.757812 -12.046875 2.847656 -12.007812 2.921875 -11.9375 C 3.003906 -11.875 3.050781 -11.789062 3.0625 -11.6875 L 3.28125 -7.296875 L 8.015625 -7.546875 Z M 7.796875 -11.9375 "/></g></g></g><g fill="#403029" fill-opacity="1"><g transform="translate(189.680618, 71.771111)"><g><path d="M 8.8125 -11.0625 C 8.914062 -11.050781 9.007812 -11.007812 9.09375 -10.9375 C 9.175781 -10.863281 9.234375 -10.773438 9.265625 -10.671875 L 11.15625 -4.25 C 11.175781 -4.15625 11.191406 -4.035156 11.203125 -3.890625 C 11.222656 -3.753906 11.226562 -3.632812 11.21875 -3.53125 L 10.796875 0.6875 C 10.785156 0.789062 10.738281 0.875 10.65625 0.9375 C 10.570312 1.007812 10.476562 1.039062 10.375 1.03125 L 8.75 0.875 C 8.644531 0.863281 8.554688 0.816406 8.484375 0.734375 C 8.410156 0.648438 8.378906 0.554688 8.390625 0.453125 L 8.59375 -1.53125 L 3.875 -2 L 3.671875 -0.015625 C 3.660156 0.0859375 3.613281 0.171875 3.53125 0.234375 C 3.457031 0.304688 3.367188 0.335938 3.265625 0.328125 L 1.65625 0.171875 C 1.5625 0.160156 1.476562 0.113281 1.40625 0.03125 C 1.332031 -0.0507812 1.300781 -0.144531 1.3125 -0.25 L 1.734375 -4.46875 C 1.742188 -4.570312 1.769531 -4.691406 1.8125 -4.828125 C 1.863281 -4.960938 1.910156 -5.078125 1.953125 -5.171875 L 5.03125 -11.09375 C 5.082031 -11.1875 5.160156 -11.257812 5.265625 -11.3125 C 5.367188 -11.375 5.472656 -11.398438 5.578125 -11.390625 Z M 4.203125 -4.359375 L 8.75 -3.90625 L 7.328125 -8.828125 L 6.5625 -8.90625 Z M 4.203125 -4.359375 "/></g></g></g><g fill="#403029" fill-opacity="1"><g transform="translate(206.073398, 73.734664)"><g><path d="M 10.984375 -9.078125 C 11.015625 -9.179688 11.078125 -9.253906 11.171875 -9.296875 C 11.265625 -9.347656 11.359375 -9.363281 11.453125 -9.34375 L 13.03125 -8.9375 C 13.132812 -8.90625 13.210938 -8.847656 13.265625 -8.765625 C 13.328125 -8.679688 13.34375 -8.585938 13.3125 -8.484375 L 10.5625 2.3125 C 10.53125 2.40625 10.46875 2.476562 10.375 2.53125 C 10.289062 2.59375 10.195312 2.609375 10.09375 2.578125 L 8.515625 2.171875 C 8.421875 2.148438 8.34375 2.09375 8.28125 2 C 8.21875 1.90625 8.203125 1.8125 8.234375 1.71875 L 9.234375 -2.21875 L 5.703125 -7.53125 L 3.640625 0.546875 C 3.609375 0.640625 3.546875 0.710938 3.453125 0.765625 C 3.367188 0.816406 3.273438 0.832031 3.171875 0.8125 L 1.625 0.40625 C 1.519531 0.382812 1.4375 0.328125 1.375 0.234375 C 1.3125 0.140625 1.296875 0.046875 1.328125 -0.046875 L 4.078125 -10.84375 C 4.109375 -10.945312 4.171875 -11.019531 4.265625 -11.0625 C 4.359375 -11.113281 4.457031 -11.128906 4.5625 -11.109375 L 6.109375 -10.703125 C 6.210938 -10.679688 6.316406 -10.628906 6.421875 -10.546875 C 6.535156 -10.472656 6.625 -10.394531 6.6875 -10.3125 L 10.03125 -5.3125 Z M 10.984375 -9.078125 "/></g></g></g><g fill="#403029" fill-opacity="1"><g transform="translate(73.64495, 226.221516)"><g><path d="M 11.578125 7.078125 C 11.429688 7.128906 11.332031 7.078125 11.28125 6.921875 L 11 6.140625 C 10.945312 5.984375 10.992188 5.878906 11.140625 5.828125 L 11.921875 5.546875 C 12.222656 5.421875 12.441406 5.210938 12.578125 4.921875 C 12.722656 4.628906 12.738281 4.328125 12.625 4.015625 L 11.328125 0.359375 C 11.222656 0.046875 11.019531 -0.179688 10.71875 -0.328125 C 10.425781 -0.484375 10.117188 -0.503906 9.796875 -0.390625 L 3.359375 1.875 C 3.046875 1.988281 2.8125 2.195312 2.65625 2.5 C 2.507812 2.8125 2.488281 3.125 2.59375 3.4375 L 3.890625 7.09375 C 4.003906 7.40625 4.207031 7.628906 4.5 7.765625 C 4.789062 7.910156 5.097656 7.9375 5.421875 7.84375 L 6.203125 7.5625 C 6.265625 7.539062 6.328125 7.539062 6.390625 7.5625 C 6.453125 7.59375 6.492188 7.644531 6.515625 7.71875 L 6.796875 8.5 C 6.816406 8.5625 6.8125 8.625 6.78125 8.6875 C 6.75 8.75 6.703125 8.789062 6.640625 8.8125 L 5.859375 9.09375 C 5.535156 9.207031 5.207031 9.242188 4.875 9.203125 C 4.539062 9.171875 4.234375 9.085938 3.953125 8.953125 C 3.671875 8.816406 3.410156 8.625 3.171875 8.375 C 2.941406 8.132812 2.769531 7.851562 2.65625 7.53125 L 1.359375 3.875 C 1.253906 3.550781 1.210938 3.21875 1.234375 2.875 C 1.265625 2.539062 1.347656 2.234375 1.484375 1.953125 C 1.617188 1.671875 1.8125 1.410156 2.0625 1.171875 C 2.3125 0.941406 2.597656 0.769531 2.921875 0.65625 L 9.359375 -1.609375 C 9.691406 -1.734375 10.023438 -1.78125 10.359375 -1.75 C 10.703125 -1.71875 11.015625 -1.632812 11.296875 -1.5 C 11.585938 -1.375 11.847656 -1.1875 12.078125 -0.9375 C 12.304688 -0.6875 12.472656 -0.398438 12.578125 -0.078125 L 13.875 3.578125 C 13.988281 3.898438 14.035156 4.226562 14.015625 4.5625 C 13.992188 4.894531 13.914062 5.203125 13.78125 5.484375 C 13.644531 5.765625 13.453125 6.023438 13.203125 6.265625 C 12.960938 6.503906 12.679688 6.679688 12.359375 6.796875 Z M 11.578125 7.078125 "/></g></g></g><g fill="#403029" fill-opacity="1"><g transform="translate(80.088526, 243.125675)"><g><path d="M 4.359375 7.703125 L 7.78125 3.328125 L 6.03125 0.046875 L 1.578125 2.421875 C 1.429688 2.503906 1.320312 2.476562 1.25 2.34375 L 0.875 1.625 C 0.789062 1.476562 0.820312 1.363281 0.96875 1.28125 L 11.03125 -4.078125 C 11.164062 -4.148438 11.273438 -4.113281 11.359375 -3.96875 L 14.25 1.453125 C 14.40625 1.753906 14.5 2.066406 14.53125 2.390625 C 14.5625 2.722656 14.53125 3.046875 14.4375 3.359375 C 14.34375 3.671875 14.191406 3.957031 13.984375 4.21875 C 13.773438 4.488281 13.515625 4.707031 13.203125 4.875 L 11.859375 5.59375 C 11.347656 5.863281 10.816406 5.945312 10.265625 5.84375 C 9.710938 5.75 9.234375 5.507812 8.828125 5.125 L 8.40625 4.671875 L 5.03125 8.96875 C 5.007812 9.039062 4.96875 9.070312 4.90625 9.0625 C 4.851562 9.0625 4.8125 9.023438 4.78125 8.953125 L 4.328125 8.125 C 4.296875 8.0625 4.285156 7.988281 4.296875 7.90625 C 4.304688 7.820312 4.328125 7.753906 4.359375 7.703125 Z M 7.1875 -0.5625 L 9.59375 3.9375 C 9.75 4.226562 9.984375 4.421875 10.296875 4.515625 C 10.617188 4.617188 10.929688 4.585938 11.234375 4.421875 L 12.578125 3.703125 C 12.890625 3.535156 13.09375 3.289062 13.1875 2.96875 C 13.28125 2.65625 13.25 2.351562 13.09375 2.0625 L 10.6875 -2.4375 Z M 7.1875 -0.5625 "/></g></g></g><g fill="#403029" fill-opacity="1"><g transform="translate(89.001807, 258.872174)"><g><path d="M 1.3125 1.328125 L 10.453125 -5.484375 C 10.578125 -5.578125 10.6875 -5.5625 10.78125 -5.4375 L 15.625 1.046875 C 15.71875 1.171875 15.703125 1.28125 15.578125 1.375 L 14.90625 1.859375 C 14.769531 1.960938 14.65625 1.953125 14.5625 1.828125 L 10.359375 -3.796875 L 7.1875 -1.421875 L 10.828125 3.453125 C 10.859375 3.492188 10.867188 3.550781 10.859375 3.625 C 10.847656 3.695312 10.816406 3.753906 10.765625 3.796875 L 10.109375 4.28125 C 10.046875 4.320312 9.984375 4.332031 9.921875 4.3125 C 9.859375 4.300781 9.8125 4.273438 9.78125 4.234375 L 6.140625 -0.640625 L 2.9375 1.75 L 7.140625 7.375 C 7.179688 7.425781 7.191406 7.484375 7.171875 7.546875 C 7.160156 7.617188 7.132812 7.671875 7.09375 7.703125 L 6.4375 8.1875 C 6.300781 8.289062 6.1875 8.28125 6.09375 8.15625 L 1.25 1.671875 C 1.15625 1.546875 1.175781 1.429688 1.3125 1.328125 Z M 1.3125 1.328125 "/></g></g></g><g fill="#403029" fill-opacity="1"><g transform="translate(100.173978, 273.07375)"><g><path d="M 13.8125 -3.078125 C 13.851562 -3.035156 13.878906 -2.976562 13.890625 -2.90625 C 13.910156 -2.832031 13.914062 -2.757812 13.90625 -2.6875 L 11.359375 3.296875 C 11.335938 3.347656 11.300781 3.414062 11.25 3.5 C 11.195312 3.582031 11.144531 3.644531 11.09375 3.6875 L 7.640625 7.203125 C 7.523438 7.316406 7.410156 7.316406 7.296875 7.203125 L 6.71875 6.625 C 6.601562 6.507812 6.601562 6.394531 6.71875 6.28125 L 8.96875 4 L 4.484375 -0.421875 L 2.234375 1.859375 C 2.117188 1.972656 2.003906 1.972656 1.890625 1.859375 L 1.296875 1.28125 C 1.179688 1.164062 1.179688 1.050781 1.296875 0.9375 L 4.75 -2.578125 C 4.800781 -2.617188 4.863281 -2.664062 4.9375 -2.71875 C 5.007812 -2.78125 5.078125 -2.820312 5.140625 -2.84375 L 11.109375 -5.453125 C 11.160156 -5.472656 11.222656 -5.472656 11.296875 -5.453125 C 11.378906 -5.441406 11.441406 -5.414062 11.484375 -5.375 Z M 9.875 3.078125 L 10.171875 2.765625 L 12.421875 -2.59375 L 11.03125 -3.96875 L 5.6875 -1.65625 L 5.390625 -1.34375 Z M 9.875 3.078125 "/></g></g></g><g fill="#403029" fill-opacity="1"><g transform="translate(113.368191, 285.450228)"><g><path d="M 4.5 2.96875 L 10.5625 -5.390625 L 7.703125 -7.484375 C 7.566406 -7.578125 7.550781 -7.691406 7.65625 -7.828125 L 8.140625 -8.5 C 8.234375 -8.625 8.347656 -8.640625 8.484375 -8.546875 L 15.296875 -3.59375 C 15.429688 -3.5 15.453125 -3.390625 15.359375 -3.265625 L 14.875 -2.59375 C 14.769531 -2.457031 14.648438 -2.4375 14.515625 -2.53125 L 11.640625 -4.625 L 5.578125 3.734375 C 5.535156 3.796875 5.476562 3.832031 5.40625 3.84375 C 5.34375 3.851562 5.285156 3.835938 5.234375 3.796875 L 4.5625 3.3125 C 4.425781 3.21875 4.40625 3.101562 4.5 2.96875 Z M 4.5 2.96875 "/></g></g></g><g fill="#403029" fill-opacity="1"><g transform="translate(128.275187, 295.69949)"><g><path d="M 1.734375 0.625 L 2.125 -0.109375 C 2.144531 -0.160156 2.1875 -0.203125 2.25 -0.234375 C 2.3125 -0.265625 2.375 -0.257812 2.4375 -0.21875 L 5.40625 1.296875 L 9.640625 -6.9375 L 6.671875 -8.453125 C 6.535156 -8.523438 6.507812 -8.632812 6.59375 -8.78125 L 6.96875 -9.515625 C 7.039062 -9.648438 7.144531 -9.679688 7.28125 -9.609375 L 14.375 -5.96875 C 14.507812 -5.894531 14.539062 -5.789062 14.46875 -5.65625 L 14.09375 -4.921875 C 14.007812 -4.773438 13.898438 -4.738281 13.765625 -4.8125 L 10.8125 -6.328125 L 6.578125 1.90625 L 9.53125 3.421875 C 9.582031 3.453125 9.613281 3.5 9.625 3.5625 C 9.644531 3.632812 9.644531 3.695312 9.625 3.75 L 9.234375 4.484375 C 9.160156 4.628906 9.054688 4.664062 8.921875 4.59375 L 1.828125 0.953125 C 1.691406 0.878906 1.660156 0.769531 1.734375 0.625 Z M 1.734375 0.625 "/></g></g></g><g fill="#403029" fill-opacity="1"><g transform="translate(144.555012, 303.590677)"><g><path d="M 3.9375 1.109375 L 3.59375 -5.375 C 3.582031 -5.445312 3.582031 -5.53125 3.59375 -5.625 C 3.601562 -5.726562 3.617188 -5.804688 3.640625 -5.859375 L 5.21875 -10.546875 C 5.25 -10.617188 5.289062 -10.664062 5.34375 -10.6875 C 5.40625 -10.707031 5.46875 -10.707031 5.53125 -10.6875 L 6.3125 -10.421875 C 6.457031 -10.367188 6.503906 -10.269531 6.453125 -10.125 L 4.953125 -5.6875 C 4.941406 -5.625 4.929688 -5.546875 4.921875 -5.453125 C 4.910156 -5.359375 4.90625 -5.273438 4.90625 -5.203125 L 5.21875 0.375 L 7.078125 1 L 10.703125 -3.25 C 10.742188 -3.300781 10.785156 -3.367188 10.828125 -3.453125 C 10.878906 -3.535156 10.910156 -3.609375 10.921875 -3.671875 L 12.421875 -8.109375 C 12.472656 -8.253906 12.578125 -8.300781 12.734375 -8.25 L 13.53125 -7.984375 C 13.6875 -7.929688 13.738281 -7.832031 13.6875 -7.6875 L 12.109375 -3 C 12.085938 -2.945312 12.050781 -2.878906 12 -2.796875 C 11.957031 -2.710938 11.914062 -2.644531 11.875 -2.59375 L 7.65625 2.359375 C 7.625 2.390625 7.566406 2.414062 7.484375 2.4375 C 7.398438 2.46875 7.328125 2.472656 7.265625 2.453125 L 4.1875 1.40625 C 4.125 1.382812 4.066406 1.335938 4.015625 1.265625 C 3.972656 1.203125 3.945312 1.148438 3.9375 1.109375 Z M 3.9375 1.109375 "/></g></g></g><g fill="#403029" fill-opacity="1"><g transform="translate(161.819401, 308.933742)"><g><path d="M 1.875 0.078125 L 3.84375 -11.15625 C 3.875 -11.300781 3.96875 -11.363281 4.125 -11.34375 L 12.09375 -9.9375 C 12.25 -9.90625 12.3125 -9.816406 12.28125 -9.671875 L 12.140625 -8.84375 C 12.109375 -8.6875 12.015625 -8.625 11.859375 -8.65625 L 4.9375 -9.875 L 4.25 -5.96875 L 10.25 -4.90625 C 10.300781 -4.894531 10.347656 -4.859375 10.390625 -4.796875 C 10.441406 -4.742188 10.460938 -4.6875 10.453125 -4.625 L 10.296875 -3.8125 C 10.285156 -3.738281 10.25 -3.679688 10.1875 -3.640625 C 10.132812 -3.609375 10.082031 -3.597656 10.03125 -3.609375 L 4.03125 -4.671875 L 3.34375 -0.75 L 10.265625 0.46875 C 10.328125 0.476562 10.375 0.515625 10.40625 0.578125 C 10.445312 0.640625 10.460938 0.695312 10.453125 0.75 L 10.3125 1.5625 C 10.28125 1.726562 10.1875 1.796875 10.03125 1.765625 L 2.0625 0.359375 C 1.90625 0.335938 1.84375 0.242188 1.875 0.078125 Z M 1.875 0.078125 "/></g></g></g><g fill="#403029" fill-opacity="1"><g transform="translate(179.690978, 311.619751)"><g/></g></g><g fill="#403029" fill-opacity="1"><g transform="translate(197.763404, 311.586777)"><g><path d="M 8.015625 -12.78125 C 8.015625 -12.832031 8.035156 -12.882812 8.078125 -12.9375 C 8.128906 -13 8.1875 -13.035156 8.25 -13.046875 L 9.0625 -13.15625 C 9.113281 -13.164062 9.164062 -13.144531 9.21875 -13.09375 C 9.269531 -13.050781 9.300781 -13.003906 9.3125 -12.953125 L 9.875 -1.515625 C 9.882812 -1.441406 9.863281 -1.378906 9.8125 -1.328125 C 9.769531 -1.273438 9.71875 -1.242188 9.65625 -1.234375 L 8.609375 -1.109375 C 8.460938 -1.085938 8.335938 -1.140625 8.234375 -1.265625 L 5.484375 -4.8125 L 3.71875 -0.6875 C 3.65625 -0.539062 3.546875 -0.457031 3.390625 -0.4375 L 2.359375 -0.296875 C 2.285156 -0.285156 2.21875 -0.300781 2.15625 -0.34375 C 2.101562 -0.382812 2.070312 -0.441406 2.0625 -0.515625 L -0.28125 -11.71875 C -0.300781 -11.769531 -0.289062 -11.820312 -0.25 -11.875 C -0.21875 -11.9375 -0.164062 -11.972656 -0.09375 -11.984375 L 0.71875 -12.078125 C 0.789062 -12.085938 0.851562 -12.066406 0.90625 -12.015625 C 0.957031 -11.972656 0.992188 -11.929688 1.015625 -11.890625 L 3.03125 -2.15625 L 4.609375 -6.0625 C 4.671875 -6.21875 4.78125 -6.300781 4.9375 -6.3125 L 5.640625 -6.40625 C 5.796875 -6.425781 5.921875 -6.367188 6.015625 -6.234375 L 8.53125 -2.859375 Z M 8.015625 -12.78125 "/></g></g></g><g fill="#403029" fill-opacity="1"><g transform="translate(215.642783, 308.833789)"><g><path d="M 1.71875 -0.75 L -1.421875 -11.71875 C -1.460938 -11.875 -1.40625 -11.972656 -1.25 -12.015625 L 6.53125 -14.234375 C 6.675781 -14.285156 6.769531 -14.234375 6.8125 -14.078125 L 7.03125 -13.28125 C 7.082031 -13.125 7.035156 -13.019531 6.890625 -12.96875 L 0.125 -11.046875 L 1.21875 -7.234375 L 7.078125 -8.90625 C 7.128906 -8.914062 7.1875 -8.898438 7.25 -8.859375 C 7.3125 -8.828125 7.351562 -8.78125 7.375 -8.71875 L 7.609375 -7.921875 C 7.628906 -7.859375 7.617188 -7.796875 7.578125 -7.734375 C 7.535156 -7.679688 7.488281 -7.648438 7.4375 -7.640625 L 1.578125 -5.96875 L 2.671875 -2.140625 L 9.4375 -4.0625 C 9.5 -4.082031 9.554688 -4.070312 9.609375 -4.03125 C 9.671875 -4 9.707031 -3.957031 9.71875 -3.90625 L 9.953125 -3.109375 C 9.992188 -2.953125 9.941406 -2.847656 9.796875 -2.796875 L 2.015625 -0.578125 C 1.859375 -0.535156 1.757812 -0.59375 1.71875 -0.75 Z M 1.71875 -0.75 "/></g></g></g><g fill="#403029" fill-opacity="1"><g transform="translate(232.887202, 303.426503)"><g><path d="M 1.328125 -0.890625 L -3.421875 -11.25 C -3.453125 -11.320312 -3.453125 -11.382812 -3.421875 -11.4375 C -3.390625 -11.5 -3.347656 -11.546875 -3.296875 -11.578125 L 2.3125 -14.140625 C 2.625 -14.285156 2.941406 -14.359375 3.265625 -14.359375 C 3.597656 -14.367188 3.914062 -14.316406 4.21875 -14.203125 C 4.53125 -14.097656 4.8125 -13.929688 5.0625 -13.703125 C 5.3125 -13.472656 5.507812 -13.203125 5.65625 -12.890625 L 6.296875 -11.484375 C 6.546875 -10.960938 6.597656 -10.421875 6.453125 -9.859375 L 6.359375 -9.46875 L 6.71875 -9.265625 C 7.25 -8.984375 7.628906 -8.585938 7.859375 -8.078125 L 8.515625 -6.671875 C 8.648438 -6.359375 8.71875 -6.035156 8.71875 -5.703125 C 8.726562 -5.367188 8.675781 -5.050781 8.5625 -4.75 C 8.445312 -4.445312 8.28125 -4.171875 8.0625 -3.921875 C 7.84375 -3.671875 7.578125 -3.472656 7.265625 -3.328125 L 1.65625 -0.765625 C 1.601562 -0.734375 1.539062 -0.726562 1.46875 -0.75 C 1.40625 -0.769531 1.359375 -0.816406 1.328125 -0.890625 Z M 2.078125 -2.390625 L 6.71875 -4.515625 C 7.019531 -4.648438 7.226562 -4.875 7.34375 -5.1875 C 7.457031 -5.507812 7.445312 -5.820312 7.3125 -6.125 L 6.65625 -7.53125 C 6.519531 -7.832031 6.296875 -8.039062 5.984375 -8.15625 C 5.671875 -8.28125 5.363281 -8.273438 5.0625 -8.140625 L 0.421875 -6.015625 Z M -0.125 -7.21875 L 4.515625 -9.34375 C 4.816406 -9.476562 5.023438 -9.695312 5.140625 -10 C 5.253906 -10.3125 5.238281 -10.625 5.09375 -10.9375 L 4.453125 -12.34375 C 4.316406 -12.65625 4.09375 -12.863281 3.78125 -12.96875 C 3.46875 -13.082031 3.160156 -13.070312 2.859375 -12.9375 L -1.78125 -10.8125 Z M -0.125 -7.21875 "/></g></g></g><g fill="#403029" fill-opacity="1"><g transform="translate(249.122314, 295.487565)"><g/></g></g><g fill="#403029" fill-opacity="1"><g transform="translate(263.980441, 285.198835)"><g><path d="M 1 -1.234375 L -6.609375 -9.71875 C -6.648438 -9.757812 -6.664062 -9.816406 -6.65625 -9.890625 C -6.644531 -9.960938 -6.617188 -10.019531 -6.578125 -10.0625 L -2 -14.171875 C -1.738281 -14.398438 -1.453125 -14.570312 -1.140625 -14.6875 C -0.828125 -14.800781 -0.507812 -14.847656 -0.1875 -14.828125 C 0.132812 -14.804688 0.445312 -14.726562 0.75 -14.59375 C 1.0625 -14.457031 1.335938 -14.257812 1.578125 -14 L 6.140625 -8.921875 C 6.367188 -8.660156 6.535156 -8.363281 6.640625 -8.03125 C 6.742188 -7.707031 6.785156 -7.382812 6.765625 -7.0625 C 6.753906 -6.75 6.675781 -6.4375 6.53125 -6.125 C 6.394531 -5.820312 6.195312 -5.554688 5.9375 -5.328125 L 1.359375 -1.21875 C 1.316406 -1.175781 1.257812 -1.15625 1.1875 -1.15625 C 1.113281 -1.15625 1.050781 -1.179688 1 -1.234375 Z M 1.28125 -2.90625 L 5.0625 -6.296875 C 5.3125 -6.523438 5.441406 -6.804688 5.453125 -7.140625 C 5.460938 -7.484375 5.359375 -7.78125 5.140625 -8.03125 L 0.578125 -13.109375 C 0.347656 -13.359375 0.0703125 -13.492188 -0.25 -13.515625 C -0.582031 -13.535156 -0.875 -13.429688 -1.125 -13.203125 L -4.90625 -9.8125 Z M 1.28125 -2.90625 "/></g></g></g><g fill="#403029" fill-opacity="1"><g transform="translate(277.131185, 272.776297)"><g><path d="M 1 -1.59375 L -7.8125 -8.84375 C -7.9375 -8.9375 -7.953125 -9.046875 -7.859375 -9.171875 L -2.71875 -15.421875 C -2.613281 -15.535156 -2.5 -15.546875 -2.375 -15.453125 L -1.734375 -14.921875 C -1.609375 -14.816406 -1.597656 -14.707031 -1.703125 -14.59375 L -6.171875 -9.15625 L -3.109375 -6.640625 L 0.765625 -11.34375 C 0.796875 -11.382812 0.847656 -11.40625 0.921875 -11.40625 C 0.992188 -11.414062 1.054688 -11.398438 1.109375 -11.359375 L 1.75 -10.84375 C 1.800781 -10.789062 1.828125 -10.726562 1.828125 -10.65625 C 1.828125 -10.59375 1.8125 -10.539062 1.78125 -10.5 L -2.09375 -5.796875 L 0.984375 -3.265625 L 5.453125 -8.703125 C 5.492188 -8.742188 5.550781 -8.765625 5.625 -8.765625 C 5.695312 -8.773438 5.753906 -8.765625 5.796875 -8.734375 L 6.4375 -8.203125 C 6.5625 -8.097656 6.570312 -7.988281 6.46875 -7.875 L 1.328125 -1.625 C 1.234375 -1.5 1.125 -1.488281 1 -1.59375 Z M 1 -1.59375 "/></g></g></g><g fill="#403029" fill-opacity="1"><g transform="translate(288.253713, 258.532138)"><g><path d="M 1.90625 -3.625 L -4.515625 -4.65625 C -4.578125 -4.65625 -4.648438 -4.671875 -4.734375 -4.703125 C -4.828125 -4.734375 -4.898438 -4.765625 -4.953125 -4.796875 L -9.203125 -7.328125 C -9.265625 -7.359375 -9.300781 -7.40625 -9.3125 -7.46875 C -9.320312 -7.53125 -9.3125 -7.59375 -9.28125 -7.65625 L -8.859375 -8.359375 C -8.773438 -8.492188 -8.664062 -8.523438 -8.53125 -8.453125 L -4.5 -6.046875 C -4.445312 -6.015625 -4.375 -5.984375 -4.28125 -5.953125 C -4.195312 -5.921875 -4.117188 -5.898438 -4.046875 -5.890625 L 1.46875 -5.015625 L 2.46875 -6.71875 L -0.921875 -11.15625 C -0.972656 -11.207031 -1.03125 -11.257812 -1.09375 -11.3125 C -1.164062 -11.375 -1.226562 -11.421875 -1.28125 -11.453125 L -5.3125 -13.859375 C -5.445312 -13.929688 -5.472656 -14.039062 -5.390625 -14.1875 L -4.96875 -14.890625 C -4.882812 -15.035156 -4.773438 -15.070312 -4.640625 -15 L -0.390625 -12.46875 C -0.335938 -12.4375 -0.273438 -12.390625 -0.203125 -12.328125 C -0.140625 -12.265625 -0.0859375 -12.207031 -0.046875 -12.15625 L 3.90625 -7 C 3.9375 -6.957031 3.953125 -6.890625 3.953125 -6.796875 C 3.960938 -6.710938 3.953125 -6.644531 3.921875 -6.59375 L 2.265625 -3.796875 C 2.222656 -3.734375 2.164062 -3.6875 2.09375 -3.65625 C 2.019531 -3.632812 1.957031 -3.625 1.90625 -3.625 Z M 1.90625 -3.625 "/></g></g></g><g fill="#403029" fill-opacity="1"><g transform="translate(297.107663, 242.777248)"><g><path d="M 0.46875 -1.8125 L -10.09375 -6.109375 C -10.238281 -6.171875 -10.285156 -6.273438 -10.234375 -6.421875 L -7.171875 -13.921875 C -7.117188 -14.066406 -7.019531 -14.109375 -6.875 -14.046875 L -6.109375 -13.734375 C -5.953125 -13.671875 -5.898438 -13.566406 -5.953125 -13.421875 L -8.609375 -6.90625 L -4.9375 -5.40625 L -2.640625 -11.046875 C -2.617188 -11.097656 -2.570312 -11.140625 -2.5 -11.171875 C -2.4375 -11.203125 -2.375 -11.203125 -2.3125 -11.171875 L -1.546875 -10.859375 C -1.472656 -10.835938 -1.425781 -10.796875 -1.40625 -10.734375 C -1.394531 -10.671875 -1.398438 -10.613281 -1.421875 -10.5625 L -3.71875 -4.921875 L -0.03125 -3.421875 L 2.625 -9.9375 C 2.644531 -10 2.6875 -10.039062 2.75 -10.0625 C 2.8125 -10.082031 2.867188 -10.082031 2.921875 -10.0625 L 3.6875 -9.75 C 3.84375 -9.6875 3.894531 -9.582031 3.84375 -9.4375 L 0.78125 -1.9375 C 0.726562 -1.789062 0.625 -1.75 0.46875 -1.8125 Z M 0.46875 -1.8125 "/></g></g></g><g fill="#403029" fill-opacity="1"><g transform="translate(303.495539, 225.87282)"><g><path d="M -11.03125 -5 L -10.828125 -5.796875 C -10.796875 -5.953125 -10.703125 -6.015625 -10.546875 -5.984375 L -0.5 -3.578125 L 1.078125 -10.171875 C 1.097656 -10.242188 1.140625 -10.296875 1.203125 -10.328125 C 1.265625 -10.359375 1.320312 -10.367188 1.375 -10.359375 L 2.171875 -10.171875 C 2.335938 -10.128906 2.398438 -10.023438 2.359375 -9.859375 L 0.53125 -2.234375 C 0.519531 -2.171875 0.484375 -2.117188 0.421875 -2.078125 C 0.367188 -2.035156 0.304688 -2.023438 0.234375 -2.046875 L -10.84375 -4.703125 C -10.914062 -4.710938 -10.96875 -4.75 -11 -4.8125 C -11.03125 -4.875 -11.039062 -4.9375 -11.03125 -5 Z M -11.03125 -5 "/></g></g></g><g fill="#403029" fill-opacity="1"><g transform="translate(307.267335, 208.179949)"><g><path d="M 0.34375 -4.09375 C 0.3125 -3.75 0.210938 -3.425781 0.046875 -3.125 C -0.109375 -2.832031 -0.304688 -2.585938 -0.546875 -2.390625 C -0.785156 -2.191406 -1.066406 -2.035156 -1.390625 -1.921875 C -1.710938 -1.816406 -2.039062 -1.78125 -2.375 -1.8125 L -9.1875 -2.375 C -9.539062 -2.40625 -9.863281 -2.5 -10.15625 -2.65625 C -10.457031 -2.820312 -10.710938 -3.023438 -10.921875 -3.265625 C -11.128906 -3.503906 -11.285156 -3.78125 -11.390625 -4.09375 C -11.492188 -4.414062 -11.53125 -4.75 -11.5 -5.09375 L -11.171875 -8.953125 C -11.140625 -9.296875 -11.046875 -9.613281 -10.890625 -9.90625 C -10.734375 -10.207031 -10.535156 -10.460938 -10.296875 -10.671875 C -10.054688 -10.878906 -9.773438 -11.035156 -9.453125 -11.140625 C -9.140625 -11.253906 -8.804688 -11.296875 -8.453125 -11.265625 L -1.640625 -10.703125 C -1.304688 -10.671875 -0.988281 -10.570312 -0.6875 -10.40625 C -0.382812 -10.25 -0.128906 -10.046875 0.078125 -9.796875 C 0.285156 -9.546875 0.441406 -9.257812 0.546875 -8.9375 C 0.660156 -8.625 0.703125 -8.296875 0.671875 -7.953125 Z M -10.203125 -4.984375 C -10.234375 -4.648438 -10.140625 -4.351562 -9.921875 -4.09375 C -9.703125 -3.832031 -9.421875 -3.6875 -9.078125 -3.65625 L -2.265625 -3.09375 C -1.941406 -3.0625 -1.648438 -3.15625 -1.390625 -3.375 C -1.140625 -3.59375 -1 -3.867188 -0.96875 -4.203125 L -0.640625 -8.0625 C -0.609375 -8.394531 -0.703125 -8.6875 -0.921875 -8.9375 C -1.148438 -9.195312 -1.425781 -9.34375 -1.75 -9.375 L -8.5625 -9.9375 C -8.90625 -9.96875 -9.203125 -9.875 -9.453125 -9.65625 C -9.703125 -9.445312 -9.84375 -9.175781 -9.875 -8.84375 Z M -10.203125 -4.984375 "/></g></g></g><g fill="#403029" fill-opacity="1"><g transform="translate(308.3327, 190.120784)"><g><path d="M -0.359375 -1.5625 L -11.734375 -0.796875 C -11.804688 -0.785156 -11.863281 -0.804688 -11.90625 -0.859375 C -11.945312 -0.910156 -11.972656 -0.96875 -11.984375 -1.03125 L -12.390625 -7.171875 C -12.410156 -7.515625 -12.363281 -7.84375 -12.25 -8.15625 C -12.144531 -8.476562 -11.984375 -8.757812 -11.765625 -9 C -11.554688 -9.25 -11.304688 -9.445312 -11.015625 -9.59375 C -10.722656 -9.75 -10.398438 -9.835938 -10.046875 -9.859375 L -8.515625 -9.953125 C -8.160156 -9.984375 -7.820312 -9.941406 -7.5 -9.828125 C -7.175781 -9.722656 -6.894531 -9.5625 -6.65625 -9.34375 C -6.414062 -9.132812 -6.21875 -8.878906 -6.0625 -8.578125 C -5.914062 -8.273438 -5.832031 -7.953125 -5.8125 -7.609375 L -5.46875 -2.53125 L -0.4375 -2.875 C -0.269531 -2.882812 -0.179688 -2.8125 -0.171875 -2.65625 L -0.125 -1.828125 C -0.113281 -1.765625 -0.128906 -1.703125 -0.171875 -1.640625 C -0.222656 -1.585938 -0.285156 -1.5625 -0.359375 -1.5625 Z M -6.78125 -2.453125 L -7.125 -7.53125 C -7.144531 -7.863281 -7.28125 -8.140625 -7.53125 -8.359375 C -7.78125 -8.578125 -8.078125 -8.671875 -8.421875 -8.640625 L -9.953125 -8.546875 C -10.296875 -8.523438 -10.570312 -8.390625 -10.78125 -8.140625 C -11 -7.890625 -11.097656 -7.597656 -11.078125 -7.265625 L -10.734375 -2.1875 Z M -6.78125 -2.453125 "/></g></g></g><g fill="#403029" fill-opacity="1"><g transform="translate(306.66135, 172.104513)"><g><path d="M -0.65625 -1.765625 L -11.78125 0.703125 C -11.9375 0.742188 -12.03125 0.6875 -12.0625 0.53125 L -13.8125 -7.375 C -13.84375 -7.519531 -13.78125 -7.613281 -13.625 -7.65625 L -12.828125 -7.828125 C -12.660156 -7.859375 -12.5625 -7.800781 -12.53125 -7.65625 L -11.015625 -0.78125 L -7.140625 -1.640625 L -8.453125 -7.59375 C -8.460938 -7.644531 -8.445312 -7.703125 -8.40625 -7.765625 C -8.363281 -7.835938 -8.3125 -7.878906 -8.25 -7.890625 L -7.453125 -8.0625 C -7.378906 -8.082031 -7.316406 -8.070312 -7.265625 -8.03125 C -7.210938 -7.988281 -7.179688 -7.941406 -7.171875 -7.890625 L -5.859375 -1.9375 L -1.96875 -2.796875 L -3.484375 -9.671875 C -3.492188 -9.722656 -3.476562 -9.773438 -3.4375 -9.828125 C -3.394531 -9.890625 -3.347656 -9.925781 -3.296875 -9.9375 L -2.5 -10.125 C -2.332031 -10.15625 -2.234375 -10.097656 -2.203125 -9.953125 L -0.453125 -2.046875 C -0.421875 -1.890625 -0.488281 -1.796875 -0.65625 -1.765625 Z M -0.65625 -1.765625 "/></g></g></g><g fill="#403029" fill-opacity="1"><g transform="translate(302.315016, 154.566647)"><g><path d="M -3.40625 -8.1875 L -7.328125 -4.25 L -5.984375 -0.796875 L -1.28125 -2.609375 C -1.125 -2.671875 -1.015625 -2.628906 -0.953125 -2.484375 L -0.671875 -1.71875 C -0.609375 -1.5625 -0.65625 -1.453125 -0.8125 -1.390625 L -11.453125 2.71875 C -11.597656 2.78125 -11.703125 2.734375 -11.765625 2.578125 L -13.96875 -3.15625 C -14.09375 -3.46875 -14.148438 -3.789062 -14.140625 -4.125 C -14.128906 -4.457031 -14.054688 -4.769531 -13.921875 -5.0625 C -13.785156 -5.363281 -13.597656 -5.632812 -13.359375 -5.875 C -13.128906 -6.125 -12.851562 -6.3125 -12.53125 -6.4375 L -11.09375 -6.984375 C -10.5625 -7.191406 -10.023438 -7.210938 -9.484375 -7.046875 C -8.953125 -6.890625 -8.507812 -6.585938 -8.15625 -6.140625 L -7.78125 -5.640625 L -3.921875 -9.53125 C -3.878906 -9.582031 -3.832031 -9.601562 -3.78125 -9.59375 C -3.726562 -9.582031 -3.691406 -9.539062 -3.671875 -9.46875 L -3.328125 -8.578125 C -3.296875 -8.523438 -3.285156 -8.457031 -3.296875 -8.375 C -3.316406 -8.289062 -3.351562 -8.226562 -3.40625 -8.1875 Z M -7.203125 -0.3125 L -9.03125 -5.0625 C -9.15625 -5.363281 -9.367188 -5.582031 -9.671875 -5.71875 C -9.972656 -5.851562 -10.285156 -5.859375 -10.609375 -5.734375 L -12.046875 -5.1875 C -12.359375 -5.0625 -12.582031 -4.847656 -12.71875 -4.546875 C -12.851562 -4.242188 -12.859375 -3.941406 -12.734375 -3.640625 L -10.90625 1.109375 Z M -7.203125 -0.3125 "/></g></g></g><g clip-path="url(#ba46da367b)"><path fill="#403029" d="M 146.121094 189.210938 L 166.679688 209.777344 L 164.546875 211.910156 L 141.871094 189.210938 L 164.558594 166.511719 L 166.6875 168.640625 Z M 194.339844 149.480469 L 197.171875 150.195312 L 180.152344 228.929688 L 177.316406 228.214844 Z M 209.933594 166.511719 L 232.621094 189.210938 L 209.933594 211.910156 L 207.800781 209.777344 L 228.359375 189.210938 L 207.800781 168.640625 Z M 209.933594 166.511719 " fill-opacity="1" fill-rule="nonzero"/></g></svg>