<svg xmlns="http://www.w3.org/2000/svg" xmlns:xlink="http://www.w3.org/1999/xlink" width="500" zoomAndPan="magnify" viewBox="0 0 375 374.999991" height="500" preserveAspectRatio="xMidYMid meet" version="1.0"><defs><filter x="0%" y="0%" width="100%" height="100%" id="8129b8d173"><feColorMatrix values="0 0 0 0 1 0 0 0 0 1 0 0 0 0 1 0 0 0 1 0" color-interpolation-filters="sRGB"/></filter><g/><mask id="dca8a541a9"><g filter="url(#8129b8d173)"><rect x="-37.5" width="450" fill="#000000" y="-37.499999" height="449.999989" fill-opacity="0.6471"/></g></mask><clipPath id="31be7b3135"><path d="M 212 35 L 327.839844 35 L 327.839844 216 L 212 216 Z M 212 35 " clip-rule="nonzero"/></clipPath><clipPath id="db4efc5a8b"><path d="M 116 1.671875 L 212.808594 1.671875 L 212.808594 249.882812 L 116 249.882812 Z M 116 1.671875 " clip-rule="nonzero"/></clipPath><clipPath id="f443ddbc37"><rect x="0" width="329" y="0" height="251"/></clipPath></defs><g mask="url(#dca8a541a9)"><g transform="matrix(1, 0, 0, 1, 23, 24)"><g clip-path="url(#f443ddbc37)"><g clip-path="url(#31be7b3135)"><path fill="#000000" d="M 325.414062 120.886719 L 242.277344 37.613281 C 239.683594 35.035156 235.105469 35.035156 232.53125 37.613281 L 214.507812 55.667969 C 211.816406 58.363281 211.816406 62.730469 214.507812 65.425781 L 274.738281 125.761719 L 214.507812 186.09375 C 211.816406 188.789062 211.816406 193.171875 214.507812 195.871094 L 232.53125 213.90625 C 233.828125 215.207031 235.578125 215.929688 237.414062 215.929688 C 239.230469 215.929688 240.980469 215.207031 242.277344 213.90625 L 325.414062 130.648438 C 328.105469 127.953125 328.105469 123.585938 325.414062 120.886719 Z M 325.414062 120.886719 " fill-opacity="1" fill-rule="nonzero"/></g><path fill="#000000" d="M 114.609375 186.09375 L 54.378906 125.761719 L 114.625 65.425781 C 115.90625 64.148438 116.644531 62.394531 116.644531 60.554688 C 116.644531 58.71875 115.921875 56.964844 114.625 55.667969 L 96.601562 37.613281 C 95.304688 36.332031 93.554688 35.589844 91.722656 35.589844 C 89.902344 35.589844 88.136719 36.332031 86.859375 37.613281 L 3.722656 120.886719 C 1.027344 123.585938 1.027344 127.953125 3.722656 130.648438 L 86.839844 213.90625 C 88.136719 215.207031 89.886719 215.929688 91.722656 215.929688 C 93.539062 215.929688 95.304688 215.207031 96.601562 213.90625 L 114.609375 195.871094 C 117.300781 193.171875 117.300781 188.789062 114.609375 186.09375 Z M 114.609375 186.09375 " fill-opacity="1" fill-rule="nonzero"/><g clip-path="url(#db4efc5a8b)"><path fill="#000000" d="M 211.832031 9.597656 C 210.957031 7.996094 209.476562 6.796875 207.726562 6.273438 L 193.117188 1.960938 C 189.464844 0.878906 185.628906 2.972656 184.550781 6.628906 L 116.730469 236.699219 C 116.207031 238.46875 116.410156 240.355469 117.285156 241.957031 C 118.160156 243.558594 119.640625 244.757812 121.390625 245.28125 L 136 249.59375 C 136.65625 249.796875 137.3125 249.882812 137.953125 249.882812 C 140.929688 249.882812 143.671875 247.941406 144.566406 244.941406 L 212.386719 14.855469 C 212.910156 13.101562 212.707031 11.214844 211.832031 9.597656 Z M 211.832031 9.597656 " fill-opacity="1" fill-rule="nonzero"/></g></g></g></g><g fill="#ff00ff" fill-opacity="1"><g transform="translate(105.985097, 329.862773)"><g><path d="M 35.203125 -54.40625 L 30.1875 -38.1875 L 46.9375 -38.1875 L 41.921875 -54.40625 C 41.640625 -55.050781 41.335938 -55.515625 41.015625 -55.796875 C 40.703125 -56.078125 40.332031 -56.21875 39.90625 -56.21875 L 37.234375 -56.21875 C 36.804688 -56.21875 36.429688 -56.078125 36.109375 -55.796875 C 35.796875 -55.515625 35.492188 -55.050781 35.203125 -54.40625 Z M 29.125 -3.84375 C 29.125 -2.488281 28.820312 -1.507812 28.21875 -0.90625 C 27.613281 -0.300781 26.632812 0 25.28125 0 L 9.609375 0 C 8.253906 0 7.273438 -0.300781 6.671875 -0.90625 C 6.066406 -1.507812 5.765625 -2.488281 5.765625 -3.84375 L 5.765625 -32 C 5.765625 -34.132812 6.097656 -36.585938 6.765625 -39.359375 C 7.441406 -42.140625 8.492188 -45.378906 9.921875 -49.078125 L 19.203125 -73.296875 C 19.628906 -74.503906 20.285156 -75.390625 21.171875 -75.953125 C 22.066406 -76.523438 23.222656 -76.8125 24.640625 -76.8125 L 53.34375 -76.8125 C 54.695312 -76.8125 55.816406 -76.523438 56.703125 -75.953125 C 57.585938 -75.390625 58.242188 -74.503906 58.671875 -73.296875 L 67.953125 -49.078125 C 69.378906 -45.378906 70.429688 -42.140625 71.109375 -39.359375 C 71.785156 -36.585938 72.125 -34.132812 72.125 -32 L 72.125 -3.84375 C 72.125 -2.488281 71.820312 -1.507812 71.21875 -0.90625 C 70.613281 -0.300781 69.632812 0 68.28125 0 L 52.171875 0 C 50.742188 0 49.691406 -0.300781 49.015625 -0.90625 C 48.347656 -1.507812 48.015625 -2.488281 48.015625 -3.84375 L 48.015625 -18.78125 L 29.125 -18.78125 Z M 29.125 -3.84375 "/></g></g></g><g fill="#ff00ff" fill-opacity="1"><g transform="translate(183.862995, 329.862773)"><g><path d="M 27.734375 0 L 11.203125 0 C 9.847656 0 8.867188 -0.300781 8.265625 -0.90625 C 7.660156 -1.507812 7.359375 -2.488281 7.359375 -3.84375 L 7.359375 -72.96875 C 7.359375 -74.320312 7.660156 -75.300781 8.265625 -75.90625 C 8.867188 -76.507812 9.847656 -76.8125 11.203125 -76.8125 L 27.734375 -76.8125 C 29.085938 -76.8125 30.066406 -76.507812 30.671875 -75.90625 C 31.273438 -75.300781 31.578125 -74.320312 31.578125 -72.96875 L 31.578125 -48.4375 L 35.84375 -48.4375 L 46.828125 -73.296875 C 47.328125 -74.578125 48.003906 -75.484375 48.859375 -76.015625 C 49.710938 -76.546875 50.816406 -76.8125 52.171875 -76.8125 L 68.59375 -76.8125 C 69.800781 -76.8125 70.617188 -76.507812 71.046875 -75.90625 C 71.472656 -75.300781 71.441406 -74.429688 70.953125 -73.296875 L 60.0625 -48.4375 C 64.050781 -48.21875 67.234375 -46.8125 69.609375 -44.21875 C 71.992188 -41.625 73.1875 -38.191406 73.1875 -33.921875 L 73.1875 -3.84375 C 73.1875 -2.488281 72.882812 -1.507812 72.28125 -0.90625 C 71.675781 -0.300781 70.695312 0 69.34375 0 L 52.921875 0 C 51.566406 0 50.585938 -0.300781 49.984375 -0.90625 C 49.378906 -1.507812 49.078125 -2.488281 49.078125 -3.84375 L 49.078125 -24.640625 C 49.078125 -25.785156 48.789062 -26.675781 48.21875 -27.3125 C 47.65625 -27.945312 46.800781 -28.265625 45.65625 -28.265625 L 31.578125 -28.265625 L 31.578125 -3.84375 C 31.578125 -2.488281 31.273438 -1.507812 30.671875 -0.90625 C 30.066406 -0.300781 29.085938 0 27.734375 0 Z M 27.734375 0 "/></g></g></g><g fill="#00ffff" fill-opacity="1"><g transform="translate(111.544195, 324.678807)"><g><path d="M 35.203125 -54.40625 L 30.1875 -38.1875 L 46.9375 -38.1875 L 41.921875 -54.40625 C 41.640625 -55.050781 41.335938 -55.515625 41.015625 -55.796875 C 40.703125 -56.078125 40.332031 -56.21875 39.90625 -56.21875 L 37.234375 -56.21875 C 36.804688 -56.21875 36.429688 -56.078125 36.109375 -55.796875 C 35.796875 -55.515625 35.492188 -55.050781 35.203125 -54.40625 Z M 29.125 -3.84375 C 29.125 -2.488281 28.820312 -1.507812 28.21875 -0.90625 C 27.613281 -0.300781 26.632812 0 25.28125 0 L 9.609375 0 C 8.253906 0 7.273438 -0.300781 6.671875 -0.90625 C 6.066406 -1.507812 5.765625 -2.488281 5.765625 -3.84375 L 5.765625 -32 C 5.765625 -34.132812 6.097656 -36.585938 6.765625 -39.359375 C 7.441406 -42.140625 8.492188 -45.378906 9.921875 -49.078125 L 19.203125 -73.296875 C 19.628906 -74.503906 20.285156 -75.390625 21.171875 -75.953125 C 22.066406 -76.523438 23.222656 -76.8125 24.640625 -76.8125 L 53.34375 -76.8125 C 54.695312 -76.8125 55.816406 -76.523438 56.703125 -75.953125 C 57.585938 -75.390625 58.242188 -74.503906 58.671875 -73.296875 L 67.953125 -49.078125 C 69.378906 -45.378906 70.429688 -42.140625 71.109375 -39.359375 C 71.785156 -36.585938 72.125 -34.132812 72.125 -32 L 72.125 -3.84375 C 72.125 -2.488281 71.820312 -1.507812 71.21875 -0.90625 C 70.613281 -0.300781 69.632812 0 68.28125 0 L 52.171875 0 C 50.742188 0 49.691406 -0.300781 49.015625 -0.90625 C 48.347656 -1.507812 48.015625 -2.488281 48.015625 -3.84375 L 48.015625 -18.78125 L 29.125 -18.78125 Z M 29.125 -3.84375 "/></g></g></g><g fill="#00ffff" fill-opacity="1"><g transform="translate(189.422093, 324.678807)"><g><path d="M 27.734375 0 L 11.203125 0 C 9.847656 0 8.867188 -0.300781 8.265625 -0.90625 C 7.660156 -1.507812 7.359375 -2.488281 7.359375 -3.84375 L 7.359375 -72.96875 C 7.359375 -74.320312 7.660156 -75.300781 8.265625 -75.90625 C 8.867188 -76.507812 9.847656 -76.8125 11.203125 -76.8125 L 27.734375 -76.8125 C 29.085938 -76.8125 30.066406 -76.507812 30.671875 -75.90625 C 31.273438 -75.300781 31.578125 -74.320312 31.578125 -72.96875 L 31.578125 -48.4375 L 35.84375 -48.4375 L 46.828125 -73.296875 C 47.328125 -74.578125 48.003906 -75.484375 48.859375 -76.015625 C 49.710938 -76.546875 50.816406 -76.8125 52.171875 -76.8125 L 68.59375 -76.8125 C 69.800781 -76.8125 70.617188 -76.507812 71.046875 -75.90625 C 71.472656 -75.300781 71.441406 -74.429688 70.953125 -73.296875 L 60.0625 -48.4375 C 64.050781 -48.21875 67.234375 -46.8125 69.609375 -44.21875 C 71.992188 -41.625 73.1875 -38.191406 73.1875 -33.921875 L 73.1875 -3.84375 C 73.1875 -2.488281 72.882812 -1.507812 72.28125 -0.90625 C 71.675781 -0.300781 70.695312 0 69.34375 0 L 52.921875 0 C 51.566406 0 50.585938 -0.300781 49.984375 -0.90625 C 49.378906 -1.507812 49.078125 -2.488281 49.078125 -3.84375 L 49.078125 -24.640625 C 49.078125 -25.785156 48.789062 -26.675781 48.21875 -27.3125 C 47.65625 -27.945312 46.800781 -28.265625 45.65625 -28.265625 L 31.578125 -28.265625 L 31.578125 -3.84375 C 31.578125 -2.488281 31.273438 -1.507812 30.671875 -0.90625 C 30.066406 -0.300781 29.085938 0 27.734375 0 Z M 27.734375 0 "/></g></g></g><g fill="#7843e6" fill-opacity="1"><g transform="translate(108.764647, 327.27079)"><g><path d="M 35.203125 -54.40625 L 30.1875 -38.1875 L 46.9375 -38.1875 L 41.921875 -54.40625 C 41.640625 -55.050781 41.335938 -55.515625 41.015625 -55.796875 C 40.703125 -56.078125 40.332031 -56.21875 39.90625 -56.21875 L 37.234375 -56.21875 C 36.804688 -56.21875 36.429688 -56.078125 36.109375 -55.796875 C 35.796875 -55.515625 35.492188 -55.050781 35.203125 -54.40625 Z M 29.125 -3.84375 C 29.125 -2.488281 28.820312 -1.507812 28.21875 -0.90625 C 27.613281 -0.300781 26.632812 0 25.28125 0 L 9.609375 0 C 8.253906 0 7.273438 -0.300781 6.671875 -0.90625 C 6.066406 -1.507812 5.765625 -2.488281 5.765625 -3.84375 L 5.765625 -32 C 5.765625 -34.132812 6.097656 -36.585938 6.765625 -39.359375 C 7.441406 -42.140625 8.492188 -45.378906 9.921875 -49.078125 L 19.203125 -73.296875 C 19.628906 -74.503906 20.285156 -75.390625 21.171875 -75.953125 C 22.066406 -76.523438 23.222656 -76.8125 24.640625 -76.8125 L 53.34375 -76.8125 C 54.695312 -76.8125 55.816406 -76.523438 56.703125 -75.953125 C 57.585938 -75.390625 58.242188 -74.503906 58.671875 -73.296875 L 67.953125 -49.078125 C 69.378906 -45.378906 70.429688 -42.140625 71.109375 -39.359375 C 71.785156 -36.585938 72.125 -34.132812 72.125 -32 L 72.125 -3.84375 C 72.125 -2.488281 71.820312 -1.507812 71.21875 -0.90625 C 70.613281 -0.300781 69.632812 0 68.28125 0 L 52.171875 0 C 50.742188 0 49.691406 -0.300781 49.015625 -0.90625 C 48.347656 -1.507812 48.015625 -2.488281 48.015625 -3.84375 L 48.015625 -18.78125 L 29.125 -18.78125 Z M 29.125 -3.84375 "/></g></g></g><g fill="#7843e6" fill-opacity="1"><g transform="translate(186.642545, 327.27079)"><g><path d="M 27.734375 0 L 11.203125 0 C 9.847656 0 8.867188 -0.300781 8.265625 -0.90625 C 7.660156 -1.507812 7.359375 -2.488281 7.359375 -3.84375 L 7.359375 -72.96875 C 7.359375 -74.320312 7.660156 -75.300781 8.265625 -75.90625 C 8.867188 -76.507812 9.847656 -76.8125 11.203125 -76.8125 L 27.734375 -76.8125 C 29.085938 -76.8125 30.066406 -76.507812 30.671875 -75.90625 C 31.273438 -75.300781 31.578125 -74.320312 31.578125 -72.96875 L 31.578125 -48.4375 L 35.84375 -48.4375 L 46.828125 -73.296875 C 47.328125 -74.578125 48.003906 -75.484375 48.859375 -76.015625 C 49.710938 -76.546875 50.816406 -76.8125 52.171875 -76.8125 L 68.59375 -76.8125 C 69.800781 -76.8125 70.617188 -76.507812 71.046875 -75.90625 C 71.472656 -75.300781 71.441406 -74.429688 70.953125 -73.296875 L 60.0625 -48.4375 C 64.050781 -48.21875 67.234375 -46.8125 69.609375 -44.21875 C 71.992188 -41.625 73.1875 -38.191406 73.1875 -33.921875 L 73.1875 -3.84375 C 73.1875 -2.488281 72.882812 -1.507812 72.28125 -0.90625 C 71.675781 -0.300781 70.695312 0 69.34375 0 L 52.921875 0 C 51.566406 0 50.585938 -0.300781 49.984375 -0.90625 C 49.378906 -1.507812 49.078125 -2.488281 49.078125 -3.84375 L 49.078125 -24.640625 C 49.078125 -25.785156 48.789062 -26.675781 48.21875 -27.3125 C 47.65625 -27.945312 46.800781 -28.265625 45.65625 -28.265625 L 31.578125 -28.265625 L 31.578125 -3.84375 C 31.578125 -2.488281 31.273438 -1.507812 30.671875 -0.90625 C 30.066406 -0.300781 29.085938 0 27.734375 0 Z M 27.734375 0 "/></g></g></g></svg>